<svg width="256" height="256" viewBox="0 0 256 256" fill="none" xmlns="http://www.w3.org/2000/svg">
<path fill="url(#paint0_linear_29_2)" d="M256 0H0V256H256V0Z"/>
<path fill="#FFC800" d="M183.995 38.3828L170.819 83.4471L127.998 83.4471L148.43 22.0002L183.995 38.3828Z"/>
<path fill="#FFC800" d="M107.568 22L87.1357 83.4471H44.3145L107.568 22Z"/>
<path fill="#41D1FF" d="M148.43 22.0002L127.998 83.4471L107.568 22L148.43 22.0002Z"/>
<path fill="#FF3355" d="M127.998 83.4471L87.1357 83.4471L70.8191 139.81L109.358 139.81L127.998 83.4471Z"/>
<g>
<path fill="#41D1FF" d="M109.358 139.81L70.8191 139.81L52.1797 196.173L90.7185 196.173L109.358 139.81Z"/>
</g>
<path fill="#FF3355" d="M170.819 83.4471L127.998 83.4471L146.638 139.81L185.177 139.81L170.819 83.4471Z"/>
<path fill="#41D1FF" d="M146.638 139.81L127.998 196.173L166.537 196.173L185.177 139.81L146.638 139.81Z"/>
<path fill="#8373FF" d="M127.998 196.173L90.7185 196.173L81.3989 234L118.678 234L127.998 196.173Z"/>
<path fill="#8373FF" d="M166.537 196.173L127.998 196.173L137.318 234L174.597 234L166.537 196.173Z"/>
<defs>
<linearGradient id="paint0_linear_29_2" x1="0" y1="0" x2="256" y2="256" gradientUnits="userSpaceOnUse">
<stop stop-color="#41D1FF"/>
<stop offset="1" stop-color="#BD34FE"/>
</linearGradient>
</defs>
</svg>
